<svg width="60" height="60" viewBox="0 0 60 60" fill="none" xmlns="http://www.w3.org/2000/svg">
<circle cx="30" cy="30" r="30" fill="#20232A"/>
<path d="M29.9169 9.14118C35.3957 5.28938 38.7883 4.12636 45.4775 4.01746C47.6772 5.07416 49.0538 5.80478 50.6644 7.7438C45.6419 10.6531 43.0181 12.4554 39.1118 16.361C48.115 28.5525 54.0212 35.2555 54.6724 48.7336C53.9603 50.0533 53.4068 50.6756 52.079 51.5284C48.1213 40.6346 42.1501 34.6534 29.6812 24.0466C17.8794 34.1814 12.0637 39.9925 7.51907 51.2955C6.19785 50.3395 5.52361 49.5327 4.4541 47.5691C6.97362 35.9818 9.58782 29.2925 20.4862 16.361C16.9997 12.6087 14.3508 10.7929 9.16944 7.7438C11.1116 5.58224 12.3409 4.93529 14.5921 4.01746C21.1229 4.48253 24.4563 5.66555 29.9169 9.14118Z" fill="white"/>
</svg>
